<svg width="17" height="16" viewBox="0 0 17 16" fill="none" xmlns="http://www.w3.org/2000/svg">
<g clip-path="url(#clip0_60_155)">
<path d="M8.16319 1.62562C8.19423 1.56291 8.24218 1.51012 8.30163 1.47321C8.36109 1.4363 8.42967 1.41674 8.49965 1.41674C8.56962 1.41674 8.63821 1.4363 8.69766 1.47321C8.75711 1.51012 8.80506 1.56291 8.83611 1.62562L10.4724 4.93992C10.5801 5.15806 10.7393 5.34679 10.936 5.4899C11.1328 5.63302 11.3614 5.72625 11.6021 5.76158L15.2614 6.29708C15.3307 6.30713 15.3959 6.33638 15.4495 6.38152C15.503 6.42666 15.5429 6.48589 15.5646 6.55251C15.5862 6.61914 15.5888 6.6905 15.5721 6.75852C15.5553 6.82654 15.5198 6.88851 15.4696 6.93742L12.8233 9.51433C12.6488 9.68441 12.5182 9.89434 12.4428 10.1261C12.3674 10.3578 12.3495 10.6044 12.3905 10.8446L13.0153 14.4854C13.0275 14.5547 13.02 14.6261 12.9937 14.6913C12.9673 14.7566 12.9231 14.8131 12.8662 14.8545C12.8093 14.8958 12.7418 14.9203 12.6716 14.9252C12.6014 14.9301 12.5313 14.9152 12.4691 14.8821L9.19806 13.1623C8.98253 13.0491 8.74273 12.9899 8.49929 12.9899C8.25585 12.9899 8.01606 13.0491 7.80052 13.1623L4.53015 14.8821C4.46805 14.915 4.39797 14.9297 4.32788 14.9248C4.2578 14.9198 4.19051 14.8952 4.13369 14.8539C4.07686 14.8126 4.03278 14.7561 4.00645 14.691C3.98011 14.6258 3.97259 14.5546 3.98473 14.4854L4.60877 10.8453C4.64999 10.605 4.63214 10.3582 4.55674 10.1264C4.48134 9.89449 4.35066 9.68444 4.17598 9.51433L1.52965 6.93813C1.47907 6.88927 1.44323 6.8272 1.4262 6.75897C1.40918 6.69074 1.41167 6.6191 1.43337 6.55222C1.45507 6.48533 1.49513 6.42589 1.54897 6.38065C1.60281 6.33542 1.66827 6.30622 1.7379 6.29638L5.39644 5.76158C5.63745 5.72652 5.86634 5.63342 6.06339 5.49028C6.26045 5.34715 6.41977 5.15828 6.52765 4.93992L8.16319 1.62562Z" fill="#BECDD0" stroke="#BECDD0" stroke-width="2" stroke-linecap="round" stroke-linejoin="round"/>
</g>
<defs>
<clipPath id="clip0_60_155">
<rect width="17" height="16" fill="white"/>
</clipPath>
</defs>
</svg>
