<svg width="165" height="195" viewBox="0 0 165 195" fill="none" xmlns="http://www.w3.org/2000/svg">
<mask id="path-1-inside-1_158_2144" fill="white">
<path d="M165 19.2637V195H19.2637L0 175.735V0H145.735L165 19.2637Z"/>
</mask>
<path d="M165 19.2637V195H19.2637L0 175.735V0H145.735L165 19.2637Z" fill="#324041"/>
<path d="M165 19.2637H166V18.8494L165.707 18.5565L165 19.2637ZM165 195V196H166V195H165ZM19.2637 195L18.5565 195.707L18.8494 196H19.2637V195ZM0 175.735H-1V176.15L-0.707125 176.442L0 175.735ZM0 0V-1H-1V0H0ZM145.735 0L146.442 -0.707125L146.15 -1H145.735V0ZM165 19.2637H164V195H165H166V19.2637H165ZM165 195V194H19.2637V195V196H165V195ZM19.2637 195L19.9708 194.293L0.707125 175.028L0 175.735L-0.707125 176.442L18.5565 195.707L19.2637 195ZM0 175.735H1V0H0H-1V175.735H0ZM0 0V1H145.735V0V-1H0V0ZM145.735 0L145.028 0.707125L164.293 19.9708L165 19.2637L165.707 18.5565L146.442 -0.707125L145.735 0Z" fill="#BECDD0" mask="url(#path-1-inside-1_158_2144)"/>
<path d="M55.7179 56H41V138H55.7179H72.5385V123.282H55.7179V70.7179H74.641V138H89.359V70.7179H108.282V89.641H95.6667V104.359H108.282V123.282H91.4615V138H108.282H123V70.7179V56H55.7179Z" fill="#5C7476"/>
</svg>
