<svg width="1316" height="711" viewBox="0 0 1316 711" fill="none" xmlns="http://www.w3.org/2000/svg">
<path d="M546 8H599.571L622.786 33H569.214L546 8Z" fill="#BECDD0"/>
<path d="M609.786 8H663.358L686.572 33H633L609.786 8Z" fill="#BECDD0"/>
<path d="M673.571 8H727.143L750.357 33H696.786L673.571 8Z" fill="#BECDD0"/>
<path d="M737.357 8H790.929L814.143 33H760.572L737.357 8Z" fill="#BECDD0"/>
<path d="M1315.5 67.0948L1249.47 1H1068L1039.5 39.5H562.501L526.5 1H0.500977L0.5 612.638L48.817 661H198L247.5 709.638H1315.5V67.0948Z" fill="#080D15" stroke="#BECDD0"/>
<path d="M53 672H89.48L127.48 710H91L53 672Z" fill="#D9D9D9"/>
<path d="M104.68 672H141.16L179.16 710H142.68L104.68 672Z" fill="#D9D9D9"/>
<path d="M156.36 672H192.84L230.84 710H194.36L156.36 672Z" fill="#D9D9D9"/>
<path d="M0 0H526.5L563.5 40H0V0Z" fill="#BECDD0"/>
</svg>
